Coordinates
version=1
nRows=29
nColumns=22
inDegrees=yes

Units are S.I. units (second, meters, Newtons, ...)
If the header above contains a line with 'inDegrees', this indicates whether rotational values are in degrees (yes) or radians (no).

endheader
time	pelvis_tilt	pelvis_list	pelvis_rotation	pelvis_tx	pelvis_ty	pelvis_tz	hip_flexion_r	hip_adduction_r	hip_rotation_r	knee_angle_r	ankle_angle_r	subtalar_angle_r	hip_flexion_l	hip_adduction_l	hip_rotation_l	knee_angle_l	ankle_angle_l	subtalar_angle_l	lumbar_extension	lumbar_bending	lumbar_rotation
      4.36000000	     -6.88353949	     -4.14731820	    229.45660881	     -0.57276916	      0.93932920	     -0.43136352	     16.41958677	     -7.24959679	     -0.81876100	    -35.87702984	      7.11870336	      4.22584592	     -5.96331681	      9.26869454	      3.69521648	    -16.99955367	     20.71530342	    -22.89472065	    -12.29403112	      4.30566637	     -9.00820358
      4.37000000	     -6.68474877	     -4.26723692	    230.50043312	     -0.57765853	      0.93871044	     -0.42587329	     16.80618371	     -7.20563479	     -0.66321234	    -33.33592689	      6.82899384	      4.89613447	     -6.47916491	      9.26908920	      4.59928980	    -17.00827504	     21.02557670	    -22.69956017	    -12.27765933	      4.21237244	     -9.03398827
      4.38000000	     -6.49670468	     -4.39858711	    231.54878861	     -0.58252430	      0.93799972	     -0.42037077	     17.11984401	     -7.13813382	     -0.58464819	    -30.80487724	      6.47576621	      5.78215107	     -6.98293265	      9.25749442	      5.50785208	    -17.08062453	     21.35763162	    -22.50167802	    -12.28514826	      4.11432905	     -9.10248815
      4.39000000	     -6.33345591	     -4.53768501	    232.59938616	     -0.58739452	      0.93722626	     -0.41485972	     17.35422594	     -7.03246928	     -0.59547980	    -28.29993847	      6.09319693	      6.87607346	     -7.48861016	      9.21396481	      6.41272252	    -17.20189530	     21.71979910	    -22.27490923	    -12.32276664	      4.02364504	     -9.20081937
      4.40000000	     -6.20549669	     -4.68109414	    233.64271923	     -0.59228642	      0.93641245	     -0.40932781	     17.50081615	     -6.87287541	     -0.68384294	    -25.82143535	      5.73445052	      8.11373179	     -8.00323024	      9.12692966	      7.28926248	    -17.36667899	     22.11153412	    -22.00822076	    -12.39123068	      3.95791471	     -9.32271645
      4.41000000	     -6.12800254	     -4.82732972	    234.67486349	     -0.59722852	      0.93558795	     -0.40376478	     17.54611589	     -6.63999532	     -0.82990524	    -23.37374928	      5.43190234	      9.45045158	     -8.53839927	      8.97868043	      8.12091401	    -17.56748908	     22.53205186	    -21.69965455	    -12.49268676	      3.93187613	     -9.46510056
      4.42000000	     -6.09868457	     -4.96802969	    235.68539595	     -0.60225562	      0.93475761	     -0.39816278	     17.49628509	     -6.32392591	     -0.98045656	    -20.95822801	      5.19372817	     10.87308610	     -9.09457040	      8.76257534	      8.88725857	    -17.78168542	     22.98717762	    -21.35410358	    -12.61222905	      3.94962016	     -9.61310079
      4.43000000	     -6.12145065	     -5.11150486	    236.68030826	     -0.60737484	      0.93394496	     -0.39250718	     17.33081348	     -5.92654620	     -1.09479743	    -18.56628820	      5.02324146	     12.28409184	     -9.67699450	      8.47694872	      9.56999005	    -18.01594144	     23.46042557	    -20.99151901	    -12.75436420	      4.01060238	     -9.80183163
      4.44000000	     -6.17962920	     -5.22364526	    237.63782826	     -0.61261705	      0.93309508	     -0.38678339	     17.10465234	     -5.44124127	     -1.10075367	    -16.22960543	      4.91325491	     13.76572778	    -10.26395243	      8.12658481	     10.22037406	    -18.23381794	     23.96824762	    -20.61145327	    -12.87004671	      4.11809544	     -9.93421501
      4.45000000	     -6.27587378	     -5.34764889	    238.59586452	     -0.61793120	      0.93228042	     -0.38094976	     16.75257497	     -4.91067345	     -0.99802729	    -13.92895247	      4.84421692	     15.12960097	    -10.87609003	      7.72324163	     10.78120016	    -18.46826753	     24.45584634	    -20.25764670	    -12.99830692	      4.25666122	    -10.14573797
      4.46000000	     -6.37892910	     -5.44300702	    239.53989457	     -0.62333342	      0.93141891	     -0.37496942	     16.35577994	     -4.34945747	     -0.75024488	    -11.72754149	      4.81191123	     16.45137729	    -11.48726980	      7.28417996	     11.33192042	    -18.66921779	     24.95181782	    -19.92610315	    -13.07238218	      4.41902935	    -10.35097420
      4.47000000	     -6.45578969	     -5.52683887	    240.48402984	     -0.62877339	      0.93050107	     -0.36883637	     15.93701670	     -3.81544949	     -0.36111067	     -9.68325090	      4.79767317	     17.69232590	    -12.09246533	      6.85356918	     11.89973387	    -18.83998339	     25.46728613	    -19.62603834	    -13.09354168	      4.56166010	    -10.58230097
      4.48000000	     -6.52810993	     -5.61369955	    241.44680728	     -0.63422176	      0.92958471	     -0.36248996	     15.47114582	     -3.31305538	      0.09634183	     -7.83151220	      4.79115584	     18.66349440	    -12.71329810	      6.41191271	     12.44811600	    -18.99119867	     25.92031488	    -19.38755157	    -13.08335640	      4.70546616	    -10.87386271
      4.49000000	     -6.58451519	     -5.68115385	    242.43994912	     -0.63963791	      0.92864171	     -0.35591360	     15.01750648	     -2.84885721	      0.56370784	     -6.25549306	      4.75082446	     19.32494912	    -13.32604436	      5.95907054	     13.01760057	    -19.11570806	     26.32425760	    -19.19685940	    -13.01295075	      4.85459388	    -11.21032513
      4.50000000	     -6.58098020	     -5.77902678	    243.43973785	     -0.64502730	      0.92770658	     -0.34917235	     14.59136664	     -2.48084741	      1.09093173	     -5.03519339	      4.73297692	     19.84282493	    -13.97017579	      5.56179648	     13.59626799	    -19.17698633	     26.68850058	    -19.01276173	    -12.92342692	      4.92366224	    -11.60611449
      4.51000000	     -6.53157505	     -5.83704177	    244.48231559	     -0.65031111	      0.92671691	     -0.34225581	     14.26492762	     -2.16935410	      1.56361335	     -4.20828817	      4.62579116	     20.01317576	    -14.54822344	      5.17391036	     14.22773390	    -19.25022427	     27.01517457	    -18.83716872	    -12.75052250	      4.97276176	    -12.02621163
      4.52000000	     -6.50154173	     -5.94338294	    245.52228015	     -0.65554689	      0.92586524	     -0.33520990	     13.92310677	     -1.87695339	      2.10192952	     -3.77184692	      4.45530346	     20.00083714	    -15.20060377	      4.76807951	     14.83072852	    -19.28186213	     27.24569264	    -18.62525156	    -12.63092897	      5.01870952	    -12.48946988
      4.53000000	     -6.45177720	     -6.02391608	    246.58552520	     -0.66067702	      0.92503755	     -0.32807870	     13.66332340	     -1.61016057	      2.66369539	     -3.70727963	      4.10427172	     19.66591731	    -15.79540992	      4.35141943	     15.44421560	    -19.34300364	     27.43791413	    -18.36397786	    -12.47033183	      5.05980221	    -12.96957923
      4.54000000	     -6.40791211	     -6.06783260	    247.65899154	     -0.66572029	      0.92427192	     -0.32087573	     13.48769210	     -1.33611144	      3.26620344	     -3.98350882	      3.50662780	     19.05807130	    -16.32936862	      3.89659809	     16.03704223	    -19.43450136	     27.56260986	    -18.05628390	    -12.26522802	      5.12604710	    -13.48450553
      4.55000000	     -6.37359072	     -6.08636921	    248.73214389	     -0.67064335	      0.92360899	     -0.31367722	     13.38862721	     -1.05647974	      3.93803829	     -4.55189346	      2.68164443	     18.23314790	    -16.78803656	      3.42023776	     16.63370653	    -19.60095419	     27.64027842	    -17.69316819	    -12.04569606	      5.21506881	    -13.98345887
      4.56000000	     -6.37029086	     -6.08185930	    249.79869696	     -0.67545458	      0.92311808	     -0.30646481	     13.35973069	     -0.75249106	      4.59370652	     -5.37273571	      1.63179660	     17.32439062	    -17.18378535	      2.90386503	     17.20491282	    -19.83314318	     27.63192377	    -17.31139269	    -11.81441297	      5.35434061	    -14.48950470
      4.57000000	     -6.40686338	     -6.06058322	    250.85536762	     -0.68014997	      0.92284823	     -0.29924848	     13.39365498	     -0.42182500	      5.15317712	     -6.40323900	      0.47512105	     16.38357982	    -17.51441299	      2.35168357	     17.78261014	    -20.15123704	     27.53401378	    -16.91322715	    -11.58363425	      5.54369553	    -14.95927274
      4.58000000	     -6.47268722	     -6.03693321	    251.89805753	     -0.68470975	      0.92284228	     -0.29201050	     13.49011325	     -0.08756373	      5.52072893	     -7.62765936	     -0.63765105	     15.45849227	    -17.78721883	      1.78575717	     18.35308422	    -20.55740966	     27.31299152	    -16.50536149	    -11.35998890	      5.77365081	    -15.40235925
      4.59000000	     -6.57590261	     -6.00935706	    252.92698951	     -0.68913625	      0.92311221	     -0.28470551	     13.62600709	      0.24980390	      5.64191805	     -8.98709955	     -1.56672558	     14.65025247	    -18.00257865	      1.20132106	     18.91180195	    -21.05513815	     26.97220451	    -16.10653283	    -11.13649726	      6.05421628	    -15.80763093
      4.60000000	     -6.69965660	     -5.99197689	    253.93882180	     -0.69344545	      0.92366664	     -0.27733469	     13.76664106	      0.56487928	      5.52198344	    -10.41790258	     -2.23028054	     13.96408967	    -18.15712222	      0.62221094	     19.42669820	    -21.66288834	     26.47623218	    -15.69603672	    -10.92293463	      6.35564345	    -16.16457642
      4.61000000	     -6.84509030	     -5.98141423	    254.93021115	     -0.69767543	      0.92448648	     -0.26987058	     13.86624729	      0.86287692	      5.22119168	    -11.82150686	     -2.60209545	     13.44145194	    -18.25703132	      0.04169206	     19.88005649	    -22.36214813	     25.84095553	    -15.26939501	    -10.70903074	      6.67728072	    -16.47826826
      4.62000000	     -7.00940163	     -5.97293756	    255.89900358	     -0.70184206	      0.92553891	     -0.26232503	     13.89245619	      1.15120933	      4.80083423	    -13.11662281	     -2.69456675	     13.03916698	    -18.30011172	     -0.54092058	     20.26613770	    -23.14024082	     25.06951387	    -14.78374086	    -10.48734576	      7.01287120	    -16.74249838
      4.63000000	     -7.18825324	     -5.97486134	    256.82369376	     -0.70600074	      0.92680684	     -0.25475034	     13.80762869	      1.44347043	      4.34501483	    -14.23149494	     -2.57951139	     12.69914282	    -18.28735961	     -1.12232560	     20.51907811	    -24.00078117	     24.14278122	    -14.21781508	    -10.27764509	      7.34981488	    -16.93208311
      4.64000000	     -7.37502786	     -5.98414239	    257.69734636	     -0.71018203	      0.92824475	     -0.24718221	     13.60386918	      1.75133769	      3.89172428	    -15.12986518	     -2.31861365	     12.37778805	    -18.22066973	     -1.70270001	     20.62385155	    -24.92222689	     23.06662484	    -13.58295647	    -10.07585058	      7.67471343	    -17.04632511
